<svg width="24" height="24" viewBox="0 0 24 24" fill="none"
    xmlns="http://www.w3.org/2000/svg">
    <path d="M19.4133 19.1766C19.2258 17.6109 18.668 16.132 17.8031 14.9016C17.0578 13.8422 16.1133 13.0031 15.0445 12.45C15.6891 11.9672 16.2094 11.3438 16.5656 10.6219C17.025 9.69376 17.1844 8.64845 17.0273 7.60314C16.875 6.59064 16.418 5.65314 15.7055 4.89142C14.9883 4.12501 14.0836 3.60939 13.0828 3.40079C12.7148 3.32345 12.3445 3.28595 11.9812 3.28595C10.6172 3.28595 9.33515 3.81798 8.37187 4.78126C7.40859 5.74454 6.87656 7.02657 6.87656 8.39064C6.87656 9.28829 7.11562 10.1719 7.56797 10.943C7.9125 11.5289 8.37187 12.0422 8.91797 12.4524C7.84922 13.0078 6.90234 13.8469 6.15937 14.9063C5.29453 16.1367 4.73672 17.6133 4.54922 19.1813C4.50234 19.5633 4.62422 19.95 4.88203 20.2383C5.14218 20.5313 5.5125 20.7 5.90156 20.7H18.0609C18.45 20.7 18.8227 20.5313 19.0805 20.2383C19.3359 19.943 19.4578 19.5563 19.4133 19.1766ZM10.0594 13.7438C10.5305 13.5445 10.8469 13.1039 10.8844 12.5906C10.9195 12.0797 10.6687 11.5969 10.2258 11.332C9.1664 10.6992 8.53359 9.59767 8.53359 8.38829C8.53359 6.48751 10.0781 4.94298 11.9789 4.94298C12.2273 4.94298 12.4828 4.96876 12.7406 5.02267C14.0906 5.30392 15.1758 6.46642 15.3844 7.84923C15.5953 9.26251 14.9625 10.5985 13.7344 11.3344C13.2937 11.5969 13.043 12.0774 13.0758 12.593C13.1133 13.1063 13.4273 13.5469 13.9008 13.7461C15.8836 14.5828 17.3227 16.5961 17.7094 19.0336H6.24375C6.63984 16.5938 8.08125 14.5781 10.0594 13.7438Z" fill="#7B7B7B"/>
</svg>
