<svg width="28" height="28" viewBox="0 0 28 28" fill="none"
    xmlns="http://www.w3.org/2000/svg">
    <path d="M17.7708 17.1254C16.5334 16.1624 15.1365 15.61 13.938 15.61C13.3311 15.61 12.6806 15.9183 12.0853 16.2597C11.7056 15.7571 11.149 14.9734 10.8716 14.4891C10.6139 14.0376 10.3089 13.3482 10.0859 12.7346C10.5204 12.5561 10.9166 12.3349 11.1865 12.024C12.0953 10.979 12.4748 9.28013 12.2279 7.36301C11.8729 4.608 10.0956 2.33197 8.18188 2.18185C7.08488 2.09735 5.78547 2.37257 4.87307 2.8877C3.53641 3.64277 2.58092 4.94632 2.11 6.65717C1.23483 9.83754 2.08498 14.1363 4.38407 18.1565C7.15159 22.9946 11.4576 26.2453 15.0992 26.2453C16.0964 26.2453 17.0155 26.0115 17.8309 25.5509C18.2787 25.2985 19.7702 24.3683 20.1586 23.0094C20.6134 21.4178 20.2253 19.0361 17.7708 17.1254ZM18.5161 22.5401C18.3602 23.0861 17.6379 23.6986 16.991 24.0636C16.4347 24.378 15.7984 24.5373 15.0992 24.5373C12.0979 24.5373 8.30141 21.5646 5.86695 17.3086C3.81944 13.7285 3.01073 9.8209 3.7569 7.11063C4.10941 5.82957 4.76772 4.90911 5.71294 4.37506C6.25782 4.06758 7.06988 3.87437 7.77433 3.87437C7.86774 3.87437 7.95949 3.87798 8.04816 3.88494C8.87771 3.95 10.2402 5.30389 10.5338 7.58157C10.7131 8.97299 10.4693 10.246 9.89857 10.9026C9.8402 10.9654 9.6367 11.1056 8.92973 11.3377C8.08599 11.6146 8.13686 12.1923 8.19802 12.4289C8.41905 13.2779 8.94196 14.555 9.38898 15.3371C9.71479 15.9064 10.2942 16.7087 10.464 16.9412C11.1971 17.9445 11.4087 18.2069 11.8899 18.2069C12.1573 18.2069 12.3264 18.1049 12.633 17.9198C12.8796 17.771 13.6299 17.3182 13.9379 17.3182C14.7517 17.3182 15.7922 17.7499 16.7216 18.4733C18.505 19.8616 18.8181 21.4843 18.5161 22.5401Z" fill="white"/>
    <path d="M14.7889 7.72168C14.3172 7.72168 13.9349 8.10393 13.9349 8.57572V9.40891C13.9349 9.88067 14.3171 10.2629 14.7889 10.2629C15.2607 10.2629 15.643 9.8807 15.643 9.40891V8.57572C15.643 8.10393 15.2607 7.72168 14.7889 7.72168Z" fill="white"/>
    <path d="M21.4546 7.72168C20.9829 7.72168 20.6006 8.10393 20.6006 8.57572V9.40891C20.6006 9.88067 20.9828 10.2629 21.4546 10.2629C21.9264 10.2629 22.3087 9.8807 22.3087 9.40891V8.57572C22.3087 8.10393 21.9264 7.72168 21.4546 7.72168Z" fill="white"/>
    <path d="M20.2278 11.5892C19.8367 11.3324 19.3093 11.4416 19.0477 11.8289C19.0441 11.8342 18.6755 12.369 18.1134 12.369C17.5668 12.369 17.2265 11.8736 17.2037 11.8392C16.9527 11.4452 16.43 11.3246 16.0325 11.5726C15.6319 11.8214 15.5087 12.3479 15.7578 12.7485C16.0645 13.242 16.9054 14.0771 18.1134 14.0771C19.3154 14.0771 20.167 13.2481 20.4805 12.7585C20.7327 12.3649 20.6182 11.8464 20.2278 11.5892Z" fill="white"/>
    <path d="M16.0247 1.7632C14.9905 1.7632 13.9697 1.91556 12.9906 2.21607C12.5399 2.35452 12.2864 2.83241 12.4248 3.28332C12.5633 3.73368 13.0392 3.98749 13.4921 3.84907C14.3083 3.59831 15.1607 3.47127 16.0247 3.47127C20.7241 3.47127 24.5472 7.24628 24.5472 11.8865C24.5472 14.3526 23.4566 16.6865 21.555 18.2897C21.1945 18.5938 21.1486 19.1326 21.4524 19.4932C21.6215 19.6936 21.8628 19.7968 22.106 19.7968C22.3003 19.7968 22.4958 19.7309 22.6559 19.5958C24.9433 17.6673 26.2552 14.8572 26.2552 11.8865C26.2552 6.30441 21.6659 1.7632 16.0247 1.7632Z" fill="white"/>
</svg>
