<svg width="24" height="24" viewBox="0 0 24 24" fill="none"
    xmlns="http://www.w3.org/2000/svg">
    <g clip-path="url(#clip0_34_128)">
        <path d="M7.64321 13.337C7.62701 13.358 7.61201 13.3784 7.60481 13.4042L6.40961 17.9282C6.34001 18.1916 6.41081 18.4754 6.60041 18.6752C6.74081 18.8174 6.92801 18.896 7.12601 18.896C7.19081 18.896 7.25741 18.8882 7.32101 18.8708L11.6728 17.645C11.6794 17.645 11.683 17.6504 11.689 17.6504C11.7388 17.6504 11.788 17.6318 11.8246 17.5928L23.4628 5.5838C23.809 5.2262 23.998 4.7396 23.998 4.2104C23.998 3.6104 23.752 3.0104 23.3194 2.5658L22.2202 1.4288C21.7888 0.983598 21.2068 0.728598 20.626 0.728598C20.113 0.728598 19.642 0.923598 19.2946 1.2806L7.66061 13.2956C7.64801 13.307 7.65221 13.3238 7.64321 13.337ZM22.3252 4.4084L21.1696 5.6006L19.2952 3.6362L20.4346 2.4596C20.6146 2.273 20.9638 2.3 21.1702 2.5154L22.27 3.6512C22.384 3.7694 22.45 3.9278 22.45 4.0826C22.4506 4.2104 22.4062 4.325 22.3252 4.4084ZM9.71261 13.5254L18.1108 4.8584L19.9852 6.8246L11.6032 15.4748L9.71261 13.5254ZM8.18201 17.0396L8.78981 14.7404L10.4086 16.4114L8.18201 17.0396ZM22.4242 9.1676C21.9838 9.1676 21.5956 9.5372 21.5938 9.998V21.2354C21.5938 21.8234 21.1318 22.2776 20.5618 22.2776H2.66201C2.09201 22.2776 1.66841 21.8222 1.66841 21.2354V2.741C1.66841 2.153 2.09201 1.7108 2.66201 1.7108H14.9464C15.3886 1.7108 15.7492 1.304 15.7492 0.847398C15.7492 0.390798 15.3886 -0.00160217 14.9464 -0.00160217H2.53961C1.15301 -0.00160217 -0.000793457 1.1834 -0.000793457 2.6156V21.3614C-0.000793457 22.7936 1.15181 23.9984 2.53961 23.9984H20.6836C22.0726 23.9984 23.2534 22.7936 23.2534 21.3614V9.9926C23.2516 9.5366 22.8646 9.1676 22.4242 9.1676Z" fill="#7B7B7B"/>
    </g>
    <defs>
        <clipPath id="clip0_34_128">
            <rect width="24" height="24" fill="white"/>
        </clipPath>
    </defs>
</svg>
