<svg width="26" height="27" viewBox="0 0 26 27" fill="none"
    xmlns="http://www.w3.org/2000/svg">
    <path d="M8.25501 24.81C7.04601 24.81 5.94101 24.849 4.84901 24.797C3.45801 24.732 2.43101 23.471 2.41801 21.872C2.40501 19.766 2.41801 17.66 2.41801 15.554V4.77697C2.41801 2.95697 3.22401 2.15097 5.04401 2.15097C10.439 2.15097 15.847 2.17697 21.242 2.13797C22.672 2.12497 23.634 2.94397 23.621 4.47797C23.569 10.627 23.595 16.763 23.595 22.912C23.595 23.991 22.971 24.667 21.892 24.797C21.242 24.875 20.826 24.68 20.332 24.16C19.097 22.847 18.59 21.378 18.837 19.61C18.876 19.376 18.837 19.129 18.837 18.83C19.487 18.791 20.111 18.739 20.917 18.687C20.176 17.92 19.812 16.997 18.837 16.49V4.17897C18.629 4.16597 18.46 4.13997 18.304 4.13997C14.352 4.13997 10.413 4.15297 6.46101 4.12697C5.96701 4.12697 5.82401 4.25697 5.83701 4.75097C5.86301 6.81797 5.85001 8.88497 5.85001 10.952V11.576C6.40901 11.576 6.91601 11.602 7.41001 11.563C7.55301 11.55 7.70901 11.368 7.81301 11.238C8.43701 10.471 9.03501 9.69097 9.65901 8.92397C9.99701 8.50797 10.439 8.33897 10.985 8.35197C12.402 8.37797 13.819 8.33897 15.236 8.37797C15.522 8.39097 15.886 8.57297 16.055 8.79397C16.614 9.49597 17.121 10.237 17.589 10.991C17.719 11.199 17.771 11.654 17.654 11.771C17.381 12.018 17.082 11.823 16.874 11.524C16.705 11.277 16.484 11.069 16.289 10.848C15.158 9.54797 15.158 9.54797 13.455 9.57397C13 9.58697 12.948 9.74297 13.117 10.12C13.52 10.965 13.871 11.823 14.287 12.655C14.664 13.383 14.846 14.15 14.794 14.969C14.768 15.489 14.768 16.009 14.755 16.529C14.729 17.218 14.794 17.296 15.509 17.283C16.445 17.27 17.381 17.335 18.304 17.205C19.266 17.075 19.617 17.738 20.215 18.362C19.773 18.388 19.461 18.427 19.149 18.427L14.508 18.466C13.689 18.466 13.533 18.349 13.455 17.53C13.351 16.555 13.273 15.567 13.169 14.579C13.156 14.423 13.026 14.267 12.948 14.111C12.818 14.228 12.662 14.332 12.584 14.475C11.492 16.594 10.4 18.713 9.34701 20.845C9.12601 21.287 8.86601 21.508 8.38501 21.521C8.03401 21.534 7.69601 21.586 7.35801 21.625C8.19001 19.909 9.00901 18.219 9.84101 16.542C10.244 15.71 10.686 14.891 11.076 14.033C11.167 13.838 11.128 13.552 11.037 13.344C10.738 12.629 10.387 11.927 10.062 11.212C9.98401 11.043 9.91901 10.874 9.78901 10.536C9.37301 11.121 8.99601 11.563 8.69701 12.057C8.45001 12.473 8.13801 12.642 7.65701 12.603C7.18901 12.564 6.72101 12.616 6.26601 12.603C5.95401 12.59 5.83701 12.707 5.83701 13.019C5.85001 15.918 5.83701 18.83 5.85001 21.729C5.85001 21.937 5.99301 22.184 6.13601 22.353C6.72101 23.029 7.34501 23.679 7.94301 24.342C8.03401 24.498 8.11201 24.628 8.25501 24.81Z" fill="#A7D707"/>
    <path d="M9.78897 5.01099C10.699 5.01099 11.388 5.68699 11.375 6.58399C11.375 7.44199 10.673 8.14399 9.82797 8.15699C8.94397 8.16999 8.21597 7.48099 8.21597 6.59699C8.20297 5.69999 8.87897 5.01099 9.78897 5.01099ZM11.349 24.797C10.4 24.914 9.63297 24.966 9.06097 24.095C8.63197 23.419 8.03397 22.847 7.44897 22.158C7.98197 22.106 8.42397 22.054 8.86597 22.041C8.98297 22.041 9.15197 22.119 9.22997 22.223C9.91897 23.042 10.595 23.887 11.349 24.797Z" fill="#A7D707"/>
</svg>
