<svg width="20" height="20" viewBox="0 0 20 20" fill="none"
    xmlns="http://www.w3.org/2000/svg">
    <path d="M11.9794 18.88C11.8911 18.88 11.8027 18.8583 11.7224 18.8146L7.76283 16.6622C7.67779 16.616 7.6068 16.5477 7.55733 16.4645C7.50785 16.3813 7.48174 16.2863 7.48172 16.1895V8.22201L2.20643 3.21812C2.20104 3.21296 2.19588 3.20779 2.19071 3.20263C1.89325 2.89634 1.80845 2.44434 1.97483 2.05088C2.14121 1.65742 2.52455 1.40344 2.95137 1.40344H17.048C17.4751 1.40344 17.8584 1.65764 18.0248 2.05088C18.1912 2.44412 18.1064 2.89613 17.8089 3.20263C17.8037 3.20801 17.7986 3.21317 17.7932 3.21812L12.5177 8.22201V18.3419C12.5177 18.5318 12.4178 18.7074 12.2547 18.8045C12.1714 18.854 12.0764 18.8801 11.9796 18.88H11.9794ZM8.55792 15.8695L11.4413 17.4368V7.99084C11.4413 7.84319 11.502 7.70199 11.6091 7.6004L17.0076 2.47985H2.99183L8.39046 7.6004C8.49765 7.70199 8.55835 7.84319 8.55835 7.99084V15.8695H8.55792ZM17.6789 9.40819C17.6789 9.11094 17.438 8.87009 17.1408 8.87009H14.5513C14.254 8.87009 14.0132 9.11094 14.0132 9.40819C14.0132 9.70544 14.254 9.94629 14.5513 9.94629H17.1408C17.438 9.94629 17.6789 9.70544 17.6789 9.40819ZM17.6789 12.1361C17.6789 11.8389 17.438 11.598 17.1408 11.598H14.5513C14.254 11.598 14.0132 11.8389 14.0132 12.1361C14.0132 12.4334 14.254 12.6742 14.5513 12.6742H17.1408C17.438 12.6742 17.6789 12.4334 17.6789 12.1361ZM17.6789 14.8641C17.6789 14.5668 17.438 14.326 17.1408 14.326H14.5513C14.254 14.326 14.0132 14.5668 14.0132 14.8641C14.0132 15.1613 14.254 15.4022 14.5513 15.4022H17.1408C17.438 15.4022 17.6789 15.1613 17.6789 14.8641Z" fill="#4B4B4B"/>
</svg>
