<svg width="24" height="24" viewBox="0 0 24 24" fill="none"
    xmlns="http://www.w3.org/2000/svg">
    <path d="M19.722 16.6253C19.6299 16.7788 19.4805 16.8895 19.3068 16.9328C19.1331 16.9762 18.9493 16.9489 18.7958 16.8567C18.6423 16.7646 18.5317 16.6152 18.4883 16.4416C18.4449 16.2679 18.4722 16.084 18.5644 15.9305C19.277 14.7435 19.6524 13.3845 19.65 12C19.65 7.77495 16.225 4.35 12 4.35C7.77495 4.35 4.35 7.77495 4.35 12C4.35 16.225 7.77495 19.65 12 19.65C13.3843 19.6524 14.7431 19.2773 15.9301 18.5648C16.0061 18.5192 16.0903 18.489 16.178 18.476C16.2657 18.4629 16.3551 18.4673 16.4411 18.4888C16.5271 18.5103 16.608 18.5485 16.6792 18.6013C16.7504 18.654 16.8106 18.7203 16.8562 18.7963C16.9018 18.8724 16.932 18.9566 16.945 19.0443C16.9581 19.132 16.9537 19.2213 16.9322 19.3073C16.9107 19.3933 16.8725 19.4743 16.8197 19.5455C16.7669 19.6167 16.7007 19.6768 16.6247 19.7224C15.2279 20.5608 13.629 21.0025 12 21C7.02952 21 3 16.9705 3 12C3 7.02952 7.02952 3 12 3C16.9705 3 21 7.02952 21 12C21 13.6515 20.5538 15.2393 19.722 16.6253ZM8.14777 14.8978L11.325 11.7203V7.95C11.325 7.77098 11.3961 7.59929 11.5227 7.4727C11.6493 7.34611 11.821 7.275 12 7.275C12.179 7.275 12.3507 7.34611 12.4773 7.4727C12.6039 7.59929 12.675 7.77098 12.675 7.95V12C12.675 12.179 12.6038 12.3507 12.4772 12.4772L9.10222 15.8522C9.03996 15.9167 8.96548 15.9681 8.88312 16.0035C8.80077 16.0389 8.7122 16.0575 8.62257 16.0583C8.53294 16.059 8.44406 16.042 8.36111 16.008C8.27815 15.9741 8.20279 15.924 8.13941 15.8606C8.07603 15.7972 8.02591 15.7218 7.99197 15.6389C7.95803 15.5559 7.94095 15.467 7.94173 15.3774C7.94251 15.2878 7.96113 15.1992 7.99651 15.1169C8.03188 15.0345 8.08331 14.96 8.14777 14.8978Z" fill="#7B7B7B"/>
</svg>
